<?xml version="1.0" encoding="UTF-8"?>
<svg xmlns="http://www.w3.org/2000/svg" xmlns:xlink="http://www.w3.org/1999/xlink" width="1024pt" height="527pt" viewBox="0 0 1024 527" version="1.1">
<g id="surface1">
<path style=" stroke:none;fill-rule:nonzero;fill:rgb(0%,0%,0%);fill-opacity:1;" d="M 747 4.101562 C 747 7 748.601562 9.800781 753.699219 15.402344 C 758.199219 20.503906 759.898438 24.503906 758.300781 26.101562 C 757.601562 26.800781 754.902344 26.601562 750.402344 25.601562 C 739.101562 23.203125 731.902344 22.101562 724.503906 21.5 C 701.003906 19.601562 688.503906 18 680.003906 15.898438 C 674.703125 14.597656 665.003906 11 663.402344 9.796875 C 661.902344 8.695312 660.800781 13.898438 661.703125 18.195312 C 662.601562 23.195312 665.304688 26.996094 672.003906 32.496094 C 679.703125 38.894531 679.804688 40.695312 672.605469 44.195312 C 669.605469 45.695312 665.003906 47.195312 662.304688 47.496094 C 654.40625 48.394531 624.703125 48.796875 622.503906 47.996094 C 621.402344 47.496094 618.203125 46.195312 615.304688 45.097656 C 612.503906 43.898438 609.90625 42.996094 609.605469 42.996094 C 607.304688 42.996094 612.003906 53.796875 616.003906 57.796875 C 619.304688 61.097656 628.605469 65.796875 639.402344 69.695312 C 643.800781 71.195312 647.300781 72.894531 647.300781 73.496094 C 647.199219 73.996094 644.601562 75.296875 641.300781 76.394531 C 638.101562 77.394531 634.601562 78.59375 633.5 79.09375 C 632.398438 79.492188 627.898438 81.09375 623.5 82.492188 C 619.101562 83.992188 614.601562 85.492188 613.5 85.992188 C 612.398438 86.390625 609.898438 87.292969 608 87.992188 C 606.101562 88.691406 603.601562 89.59375 602.5 89.992188 C 601.398438 90.492188 596.699219 92.09375 592 93.492188 C 587.300781 94.992188 582.699219 96.59375 581.800781 97.09375 C 580.800781 97.59375 579.101562 97.992188 578.101562 97.992188 C 577 97.992188 575.902344 98.390625 575.601562 98.890625 C 575.300781 99.390625 573.601562 99.992188 571.800781 100.289062 C 570 100.589844 564.699219 101.6875 560 102.6875 C 540.601562 107.085938 537.800781 107.386719 516 107.386719 C 490.5 107.285156 488 106.785156 470.601562 98.488281 C 452.902344 90.089844 438.101562 86.886719 417.101562 86.886719 C 400 86.886719 394.703125 87.6875 376.703125 92.988281 C 368.703125 95.289062 366.003906 96.386719 352.503906 103.089844 C 338.304688 110.089844 332.304688 113.789062 304.304688 132.289062 C 267.003906 156.890625 255.304688 163.089844 237.003906 167.589844 C 229.902344 169.289062 225.304688 169.289062 218.804688 167.589844 C 210.90625 165.488281 210.605469 165.289062 208.503906 160.691406 C 204.703125 152.390625 205.902344 146.089844 213.902344 132.492188 C 217.402344 126.492188 218.503906 120.992188 217.503906 113.191406 C 216.902344 108.089844 216.304688 106.992188 212.105469 102.992188 C 206.003906 96.992188 200.207031 95.492188 185.90625 96.390625 C 180.207031 96.691406 172.40625 97.390625 168.507812 97.890625 C 164.707031 98.492188 157.90625 99.390625 153.507812 100.089844 C 149.109375 100.691406 138.007812 101.289062 128.808594 101.488281 C 119.609375 101.589844 107.308594 102.089844 101.308594 102.488281 C 89.308594 103.1875 53.308594 100.6875 51.609375 98.988281 C 51.109375 98.488281 50.007812 97.988281 49.308594 97.988281 C 46.808594 97.988281 37.109375 90.988281 29.410156 83.488281 C 21.308594 75.6875 11.710938 68.289062 6.710938 66.1875 C 4.3125 65.1875 3.910156 65.289062 3.410156 66.789062 C 3.109375 67.6875 2.210938 69.789062 1.410156 71.289062 C -0.191406 74.488281 -0.488281 83.988281 0.910156 86.789062 C 1.410156 87.6875 2.308594 89.789062 3.011719 91.488281 C 3.710938 93.089844 4.613281 95.289062 5.113281 96.1875 C 5.613281 97.1875 6.011719 98.488281 6.011719 99.085938 C 6.011719 100.085938 6.8125 102.1875 10.3125 109.984375 C 13.3125 116.585938 18.613281 123.183594 24.511719 127.484375 C 26.710938 129.183594 28.710938 130.683594 29.011719 131.085938 C 29.910156 132.085938 42.613281 137.886719 45.511719 138.585938 C 47.210938 138.984375 49.011719 139.585938 49.511719 139.984375 C 50.113281 140.382812 51.613281 140.984375 53.011719 141.285156 C 54.410156 141.585938 57.3125 142.386719 59.511719 142.984375 C 64.113281 144.183594 88.3125 148.683594 98.011719 150.085938 C 112.613281 152.085938 126.613281 154.6875 134.410156 156.585938 C 137.808594 157.484375 141.609375 158.386719 143.011719 158.6875 C 146.8125 159.585938 149.011719 161.988281 149.011719 165.386719 C 149.011719 169.785156 153.210938 181.285156 156.410156 185.386719 C 157.910156 187.386719 161.210938 190.1875 163.808594 191.6875 C 167.910156 194.085938 169.707031 194.488281 178.507812 194.789062 C 188.109375 195.089844 193.707031 194.289062 213.007812 189.789062 C 215.507812 189.289062 219.308594 188.390625 221.507812 187.890625 C 244.007812 182.789062 257.707031 184.691406 265.007812 193.992188 C 268.507812 198.492188 269.308594 200.09375 271.90625 207.992188 C 275.105469 217.792969 275.707031 219.792969 277.507812 228.492188 C 278.40625 232.890625 279.609375 237.890625 280.109375 239.59375 C 280.609375 241.292969 281.007812 243.792969 281.007812 245.292969 C 281.007812 246.691406 281.40625 248.09375 281.90625 248.394531 C 282.40625 248.695312 283.007812 250.394531 283.304688 252.195312 C 284.304688 259.296875 288.304688 271.894531 291.804688 278.996094 C 302.105469 299.996094 335.003906 321.496094 365.003906 326.894531 C 378.503906 329.394531 377.105469 328.59375 394.902344 343.894531 C 399.601562 347.996094 410.800781 358.695312 419.703125 367.695312 C 432.503906 380.59375 436.503906 383.996094 438.601562 383.996094 C 445.800781 383.996094 459.800781 389.597656 469.5 396.394531 C 476.101562 400.894531 493.101562 416.996094 492.5 417.996094 C 492.199219 418.394531 490.800781 419.097656 489.300781 419.394531 C 483.699219 420.695312 478.101562 424.292969 471.5 430.996094 L 464.800781 437.796875 L 458.601562 436.296875 C 451.902344 434.695312 444.902344 434.996094 435.800781 437.398438 C 429.101562 439.199219 422 442.199219 422 443.199219 C 422 443.699219 421.398438 444 420.699219 444 C 418.597656 444 410.800781 452.699219 409.398438 456.5 C 408.5 459.199219 408.398438 461 409.199219 463.300781 C 411.5 470.199219 415.300781 473.5 424 476.699219 C 428.300781 478.300781 443.898438 478.398438 447.699219 476.898438 C 455.300781 473.796875 459.398438 471.296875 462.800781 467.597656 C 466.402344 463.496094 466.5 463.496094 474 463.398438 C 483.101562 463.296875 486.398438 461.898438 498 453.398438 C 507 446.796875 513.800781 443 520.5 441 C 524.300781 439.898438 524.898438 440 530.5 443.199219 C 550.800781 454.699219 565.199219 466.300781 570 474.800781 C 570.800781 476.300781 571.699219 477.699219 572 478 C 572.300781 478.300781 573.101562 479.800781 573.800781 481.5 C 577.5 489.699219 577.199219 489.5 583.5 490.300781 C 589.5 491.101562 600.199219 490.699219 603 489.601562 C 605.800781 488.5 612.601562 496.101562 616.5 504.601562 C 624 520.902344 621.800781 518.902344 637.199219 523.902344 C 643.097656 525.800781 661.097656 525.601562 665.398438 523.601562 C 670.199219 521.300781 670.5 520.5 668.398438 515.703125 C 661.898438 500.703125 647.898438 487.402344 629.296875 478.503906 C 626.398438 477.203125 623.996094 475.605469 623.996094 475.105469 C 623.996094 474.605469 626.195312 473.40625 628.894531 472.40625 C 635.792969 469.90625 642.996094 464.507812 642.996094 461.707031 C 642.996094 458.90625 638.496094 451.105469 635.796875 449.105469 C 632.195312 446.503906 624.695312 442.40625 621.996094 441.605469 C 617.695312 440.304688 613.796875 439.304688 605.496094 437.105469 C 601.097656 435.90625 596.597656 434.605469 595.496094 434.105469 C 594.394531 433.605469 591.894531 432.503906 589.996094 431.605469 C 584.296875 429.003906 575.996094 420.503906 575.996094 417.207031 C 575.996094 416.605469 578.394531 414.808594 581.296875 413.207031 C 586.296875 410.40625 591.898438 405.007812 606.996094 388.707031 C 610.496094 385.007812 613.996094 382.007812 614.796875 382.007812 C 617.898438 382.007812 632.597656 386.90625 640.996094 390.808594 C 643.496094 391.910156 648.894531 394.308594 652.996094 396.007812 C 657.097656 397.808594 661.597656 399.707031 662.996094 400.40625 C 668.996094 403.207031 688.296875 408.707031 694.796875 409.40625 C 698.496094 409.804688 699.597656 409.40625 703.296875 406.304688 C 708.796875 401.703125 715.195312 393.90625 718.695312 387.605469 L 721.394531 382.503906 L 721.59375 358.003906 C 721.894531 325.605469 722.894531 303.703125 724.59375 297.003906 C 725.394531 294.003906 728.894531 285.605469 732.394531 278.503906 C 742.792969 257.402344 743.09375 256.003906 741.996094 227.902344 C 741.496094 216.101562 740.695312 204.503906 740.195312 202.003906 C 737.695312 191.105469 738.59375 181.003906 741.996094 181.003906 C 743.296875 181.003906 752.894531 174.902344 767.894531 164.605469 C 783.894531 153.605469 795.695312 147.105469 803.996094 144.707031 C 806.996094 143.90625 811.496094 142.605469 813.996094 141.90625 C 819.796875 140.304688 874.097656 140.507812 875.097656 142.105469 C 875.496094 142.707031 875.996094 145.707031 876.398438 148.707031 C 877.199219 155.707031 882.296875 166.308594 887.097656 171.007812 C 894.996094 178.609375 903.699219 181.109375 923.699219 181.507812 C 937.800781 181.808594 938 181.808594 943.199219 185.007812 C 946.097656 186.808594 949.898438 189.109375 951.699219 190.109375 C 956.097656 192.609375 968.597656 196.710938 974 197.410156 C 978.398438 198.011719 978.601562 198.210938 979.898438 202.511719 C 981.5 207.8125 986.296875 212.410156 991.699219 213.910156 C 993.800781 214.511719 999.398438 215.011719 1004.097656 215.011719 C 1014.496094 215.011719 1014.699219 214.910156 1021.097656 201.8125 C 1021.597656 200.8125 1021.996094 198.914062 1021.996094 197.511719 C 1021.996094 196.113281 1022.496094 195.011719 1022.996094 195.011719 C 1023.597656 195.011719 1023.996094 191.210938 1023.996094 185.511719 C 1023.996094 179.8125 1023.597656 176.011719 1022.996094 176.011719 C 1022.496094 176.011719 1021.996094 174.910156 1021.996094 173.613281 C 1021.996094 169.3125 1017.597656 162.8125 1010.097656 156.113281 C 993.898438 141.714844 988.699219 135.8125 984.296875 127.011719 C 980.097656 118.410156 976.996094 110.210938 976.996094 107.511719 C 976.996094 106.613281 976.597656 105.210938 976.097656 104.210938 C 975.597656 103.3125 974.199219 99.3125 972.996094 95.511719 C 968.097656 80.113281 961.894531 71.3125 952.796875 67.210938 C 950.195312 66.011719 947.597656 65.011719 946.996094 65.011719 C 946.394531 65.011719 945.996094 62.3125 945.996094 58.910156 C 945.996094 52.808594 944.496094 45.609375 942.695312 43.308594 C 941.894531 42.207031 929.09375 35.707031 919.796875 31.609375 C 911.296875 28.007812 908.296875 26.507812 904.796875 24.308594 C 902.695312 23.007812 900.597656 22.007812 900.097656 22.007812 C 899.496094 22.007812 901.496094 25.308594 904.496094 29.207031 C 910.597656 37.40625 912.195312 42.808594 909.796875 47.707031 C 908.597656 50.207031 907.898438 50.507812 902.597656 50.808594 C 898.796875 51.007812 895.199219 50.507812 892.597656 49.507812 C 888.199219 47.707031 877.796875 41.609375 875.699219 39.609375 C 871.097656 35.109375 855.5 31.007812 843.097656 31.007812 C 825.898438 31.007812 806.296875 28.40625 794.996094 24.707031 C 791.695312 23.605469 761.695312 8.707031 753.695312 4.105469 C 748.996094 1.40625 746.996094 1.40625 746.996094 4.105469 Z M 501.199219 278.402344 C 509.898438 280.703125 513.898438 282.402344 529.800781 290.402344 C 552 301.402344 565.800781 304.902344 578.800781 302.902344 C 583 302.300781 587.601562 301.402344 589 301.003906 C 593.5 299.703125 594.101562 300.605469 593.398438 307.804688 C 592.796875 313.703125 591.597656 319.105469 586.398438 338.40625 C 584.5 345.105469 584 345.507812 578.296875 344.105469 C 569.496094 341.90625 563.695312 336.105469 560.496094 326.304688 C 558.496094 320.304688 558.097656 319.804688 551.996094 318.105469 C 549.496094 317.40625 546.195312 316.40625 544.597656 315.90625 C 540.699219 314.707031 531.796875 314.804688 528.597656 316.007812 C 526.199219 316.90625 525.996094 317.40625 525.996094 323.707031 C 525.996094 333.707031 530.097656 344.007812 536.695312 350.207031 C 540.695312 354.007812 550.996094 360.007812 553.496094 360.007812 C 554.695312 360.007812 555.996094 360.40625 556.597656 360.90625 C 557.097656 361.40625 560.898438 362.007812 564.996094 362.207031 L 572.496094 362.507812 L 572.796875 366.609375 C 573.496094 376.007812 565.796875 385.808594 555.398438 388.808594 C 548.097656 390.910156 531.296875 389.609375 528.398438 386.707031 C 528 386.308594 527.097656 386.007812 526.398438 386.007812 C 523.597656 386.007812 514.199219 378.90625 505.796875 370.609375 C 484.398438 349.308594 461.597656 315.808594 456.996094 298.710938 C 454.597656 289.8125 459.796875 281.511719 469.597656 278.410156 C 475.199219 276.710938 494.796875 276.710938 501.199219 278.410156 Z M 656.597656 319.800781 C 658.199219 320.902344 666.496094 333.101562 668.296875 337 C 671.695312 344.601562 672.996094 349.800781 672.996094 356.601562 C 672.996094 364 670.996094 370.902344 668.695312 371.101562 C 661.394531 371.800781 650.894531 367.101562 638.496094 357.601562 C 636.296875 355.902344 634.296875 354.402344 634.097656 354.300781 C 633.898438 354.199219 635.097656 351.300781 636.699219 347.800781 C 638.398438 344.300781 640.597656 339.699219 641.597656 337.5 C 643.796875 332.601562 648.496094 325.398438 651.796875 321.699219 C 654.597656 318.800781 654.898438 318.597656 656.597656 319.800781 Z M 656.597656 319.800781 "/>
</g>
</svg>
